<svg xmlns="http://www.w3.org/2000/svg" viewBox="0 0 1008 695" preserveAspectRatio="xMidYMid" width="1008" height="695" xmlns:xlink="http://www.w3.org/1999/xlink" style="shape-rendering:auto;display:block;background-position-x:0%;background-position-y:0%;background-size:auto;background-origin:padding-box;background-clip:border-box;background:scroll rgb(0, 0, 0) none  repeat;width:1008px;height:695px;;animation:none"><g><g transform="matrix(0.9659258262890683,0.25881904510252074,-0.25881904510252074,0.9659258262890683,107.1130017234355,-49.10402336712173)" style="transform:matrix(0.965926, 0.258819, -0.258819, 0.965926, 107.113, -49.104);;animation:none"><path stroke-width="2" stroke-opacity="0" stroke="rgb(237, 248, 233)" fill="none" d="M -252 -52 C 0 -52 252 52 504 52 C 756 52 1008 -52 1260 -52 C 1512 -52 1764 52 2016 52 C 2268 52 2520 -52 2772 -52" transform="matrix(1,0,0,1,0,0)" style="fill:none;stroke:rgb(237, 248, 233);transform:matrix(1, 0, 0, 1, 0, 0);;animation:none"></path></g>
<g transform="matrix(0.9659258262890683,0.25881904510252074,-0.25881904510252074,0.9659258262890683,107.1130017234355,505.0460010469408)" style="transform:matrix(0.965926, 0.258819, -0.258819, 0.965926, 107.113, 505.046);;animation:none"><path stroke-width="2" stroke-opacity="0" stroke="rgb(237, 248, 233)" fill="none" d="M -252 -51.9841 C 0 -51.9841 252 51.9841 504 51.9841 C 756 51.9841 1008 -51.9841 1260 -51.9841 C 1512 -51.9841 1764 51.9841 2016 51.9841 C 2268 51.9841 2520 -51.9841 2772 -51.9841" transform="matrix(1,0,0,1,-8.063874244689941,0)" style="fill:none;stroke:rgb(237, 248, 233);transform:matrix(1, 0, 0, 1, -8.06387, 0);;animation:none"></path></g>
<g transform="matrix(0.9659258262890683,0.25881904510252074,-0.25881904510252074,0.9659258262890683,107.1130017234355,-45.39402428264907)" style="transform:matrix(0.965926, 0.258819, -0.258819, 0.965926, 107.113, -45.394);;animation:none"><path stroke-width="2" stroke-opacity="0" stroke="rgb(237, 248, 233)" fill="none" d="M -252 -51.9357 C 0 -51.9357 252 51.9357 504 51.9357 C 756 51.9357 1008 -51.9357 1260 -51.9357 C 1512 -51.9357 1764 51.9357 2016 51.9357 C 2268 51.9357 2520 -51.9357 2772 -51.9357" transform="matrix(1,0,0,1,-16.127748489379883,0)" style="fill:none;stroke:rgb(237, 248, 233);transform:matrix(1, 0, 0, 1, -16.1277, 0);;animation:none"></path></g>
<g transform="matrix(0.9659258262890683,0.25881904510252074,-0.25881904510252074,0.9659258262890683,107.1130017234355,501.3359790742845)" style="transform:matrix(0.965926, 0.258819, -0.258819, 0.965926, 107.113, 501.336);;animation:none"><path stroke-width="2" stroke-opacity="0" stroke="rgb(236, 248, 232)" fill="none" d="M -252 -51.8539 C 0 -51.8539 252 51.8539 504 51.8539 C 756 51.8539 1008 -51.8539 1260 -51.8539 C 1512 -51.8539 1764 51.8539 2016 51.8539 C 2268 51.8539 2520 -51.8539 2772 -51.8539" transform="matrix(1,0,0,1,-24.192001342773438,0)" style="fill:none;stroke:rgb(236, 248, 232);transform:matrix(1, 0, 0, 1, -24.192, 0);;animation:none"></path></g>
<g transform="matrix(0.9659258262890683,0.25881904510252074,-0.25881904510252074,0.9659258262890683,107.1130017234355,-41.69401970501235)" style="transform:matrix(0.965926, 0.258819, -0.258819, 0.965926, 107.113, -41.694);;animation:none"><path stroke-width="2" stroke-opacity="0" stroke="rgb(236, 247, 232)" fill="none" d="M -252 -51.7376 C 0 -51.7376 252 51.7376 504 51.7376 C 756 51.7376 1008 -51.7376 1260 -51.7376 C 1512 -51.7376 1764 51.7376 2016 51.7376 C 2268 51.7376 2520 -51.7376 2772 -51.7376" transform="matrix(1,0,0,1,-32.25587463378906,0)" style="fill:none;stroke:rgb(236, 247, 232);transform:matrix(1, 0, 0, 1, -32.2559, 0);;animation:none"></path></g>
<g transform="matrix(0.9659258262890683,0.25881904510252074,-0.25881904510252074,0.9659258262890683,107.1130017234355,497.6259571016283)" style="transform:matrix(0.965926, 0.258819, -0.258819, 0.965926, 107.113, 497.626);;animation:none"><path stroke-width="2" stroke-opacity="0" stroke="rgb(235, 247, 231)" fill="none" d="M -252 -51.586 C 0 -51.586 252 51.586 504 51.586 C 756 51.586 1008 -51.586 1260 -51.586 C 1512 -51.586 1764 51.586 2016 51.586 C 2268 51.586 2520 -51.586 2772 -51.586" transform="matrix(1,0,0,1,-40.31974792480469,0)" style="fill:none;stroke:rgb(235, 247, 231);transform:matrix(1, 0, 0, 1, -40.3197, 0);;animation:none"></path></g>
<g transform="matrix(0.9659258262890683,0.25881904510252074,-0.25881904510252074,0.9659258262890683,107.1130017234355,-37.984020620539695)" style="transform:matrix(0.965926, 0.258819, -0.258819, 0.965926, 107.113, -37.984);;animation:none"><path stroke-width="2" stroke-opacity="0" stroke="rgb(234, 247, 229)" fill="none" d="M -252 -51.3979 C 0 -51.3979 252 51.3979 504 51.3979 C 756 51.3979 1008 -51.3979 1260 -51.3979 C 1512 -51.3979 1764 51.3979 2016 51.3979 C 2268 51.3979 2520 -51.3979 2772 -51.3979" transform="matrix(1,0,0,1,-48.384002685546875,0)" style="fill:none;stroke:rgb(234, 247, 229);transform:matrix(1, 0, 0, 1, -48.384, 0);;animation:none"></path></g>
<g transform="matrix(0.9659258262890683,0.25881904510252074,-0.25881904510252074,0.9659258262890683,107.1130017234355,493.9260059297533)" style="transform:matrix(0.965926, 0.258819, -0.258819, 0.965926, 107.113, 493.926);;animation:none"><path stroke-width="2" stroke-opacity="0" stroke="rgb(232, 246, 228)" fill="none" d="M -252 -51.1723 C 0 -51.1723 252 51.1723 504 51.1723 C 756 51.1723 1008 -51.1723 1260 -51.1723 C 1512 -51.1723 1764 51.1723 2016 51.1723 C 2268 51.1723 2520 -51.1723 2772 -51.1723" transform="matrix(1,0,0,1,-56.4478759765625,0)" style="fill:none;stroke:rgb(232, 246, 228);transform:matrix(1, 0, 0, 1, -56.4479, 0);;animation:none"></path></g>
<g transform="matrix(0.9659258262890683,0.25881904510252074,-0.25881904510252074,0.9659258262890683,107.1130017234355,-34.27402153606704)" style="transform:matrix(0.965926, 0.258819, -0.258819, 0.965926, 107.113, -34.274);;animation:none"><path stroke-width="2" stroke-opacity="0" stroke="rgb(231, 246, 226)" fill="none" d="M -252 -50.908 C 0 -50.908 252 50.908 504 50.908 C 756 50.908 1008 -50.908 1260 -50.908 C 1512 -50.908 1764 50.908 2016 50.908 C 2268 50.908 2520 -50.908 2772 -50.908" transform="matrix(1,0,0,1,-64.51174926757812,0)" style="fill:none;stroke:rgb(231, 246, 226);transform:matrix(1, 0, 0, 1, -64.5118, 0);;animation:none"></path></g>
<g transform="matrix(0.9659258262890683,0.25881904510252074,-0.25881904510252074,0.9659258262890683,107.1130017234355,490.215983957097)" style="transform:matrix(0.965926, 0.258819, -0.258819, 0.965926, 107.113, 490.216);;animation:none"><path stroke-width="2" stroke-opacity="0" stroke="rgb(229, 245, 224)" fill="none" d="M -252 -50.6039 C 0 -50.6039 252 50.6039 504 50.6039 C 756 50.6039 1008 -50.6039 1260 -50.6039 C 1512 -50.6039 1764 50.6039 2016 50.6039 C 2268 50.6039 2520 -50.6039 2772 -50.6039" transform="matrix(1,0,0,1,-72.57600402832031,0)" style="fill:none;stroke:rgb(229, 245, 224);transform:matrix(1, 0, 0, 1, -72.576, 0);;animation:none"></path></g>
<g transform="matrix(0.9659258262890683,0.25881904510252074,-0.25881904510252074,0.9659258262890683,107.1130017234355,-30.57402458782485)" style="transform:matrix(0.965926, 0.258819, -0.258819, 0.965926, 107.113, -30.574);;animation:none"><path stroke-width="2" stroke-opacity="0" stroke="rgb(226, 244, 222)" fill="none" d="M -252 -50.2587 C 0 -50.2587 252 50.2587 504 50.2587 C 756 50.2587 1008 -50.2587 1260 -50.2587 C 1512 -50.2587 1764 50.2587 2016 50.2587 C 2268 50.2587 2520 -50.2587 2772 -50.2587" transform="matrix(1,0,0,1,-80.6398696899414,0)" style="fill:none;stroke:rgb(226, 244, 222);transform:matrix(1, 0, 0, 1, -80.6399, 0);;animation:none"></path></g>
<g transform="matrix(0.9659258262890683,0.25881904510252074,-0.25881904510252074,0.9659258262890683,107.1130017234355,486.5059619844408)" style="transform:matrix(0.965926, 0.258819, -0.258819, 0.965926, 107.113, 486.506);;animation:none"><path stroke-width="2" stroke-opacity="0" stroke="rgb(224, 243, 219)" fill="none" d="M -252 -49.8714 C 0 -49.8714 252 49.8714 504 49.8714 C 756 49.8714 1008 -49.8714 1260 -49.8714 C 1512 -49.8714 1764 49.8714 2016 49.8714 C 2268 49.8714 2520 -49.8714 2772 -49.8714" transform="matrix(1,0,0,1,-88.70375061035156,0)" style="fill:none;stroke:rgb(224, 243, 219);transform:matrix(1, 0, 0, 1, -88.7037, 0);;animation:none"></path></g>
<g transform="matrix(0.9659258262890683,0.25881904510252074,-0.25881904510252074,0.9659258262890683,107.1130017234355,-26.864025503352195)" style="transform:matrix(0.965926, 0.258819, -0.258819, 0.965926, 107.113, -26.864);;animation:none"><path stroke-width="2" stroke-opacity="0" stroke="rgb(221, 242, 216)" fill="none" d="M -252 -49.4405 C 0 -49.4405 252 49.4405 504 49.4405 C 756 49.4405 1008 -49.4405 1260 -49.4405 C 1512 -49.4405 1764 49.4405 2016 49.4405 C 2268 49.4405 2520 -49.4405 2772 -49.4405" transform="matrix(1,0,0,1,-96.76800537109375,0)" style="fill:none;stroke:rgb(221, 242, 216);transform:matrix(1, 0, 0, 1, -96.768, 0);;animation:none"></path></g>
<g transform="matrix(0.9659258262890683,0.25881904510252074,-0.25881904510252074,0.9659258262890683,107.1130017234355,482.8059497774095)" style="transform:matrix(0.965926, 0.258819, -0.258819, 0.965926, 107.113, 482.806);;animation:none"><path stroke-width="2" stroke-opacity="0" stroke="rgb(218, 241, 213)" fill="none" d="M -252 -48.9648 C 0 -48.9648 252 48.9648 504 48.9648 C 756 48.9648 1008 -48.9648 1260 -48.9648 C 1512 -48.9648 1764 48.9648 2016 48.9648 C 2268 48.9648 2520 -48.9648 2772 -48.9648" transform="matrix(1,0,0,1,-104.83187103271484,0)" style="fill:none;stroke:rgb(218, 241, 213);transform:matrix(1, 0, 0, 1, -104.832, 0);;animation:none"></path></g>
<g transform="matrix(0.9659258262890683,0.25881904510252074,-0.25881904510252074,0.9659258262890683,107.1130017234355,-23.15402641887954)" style="transform:matrix(0.965926, 0.258819, -0.258819, 0.965926, 107.113, -23.154);;animation:none"><path stroke-width="2" stroke-opacity="0" stroke="rgb(215, 240, 210)" fill="none" d="M -252 -48.443 C 0 -48.443 252 48.443 504 48.443 C 756 48.443 1008 -48.443 1260 -48.443 C 1512 -48.443 1764 48.443 2016 48.443 C 2268 48.443 2520 -48.443 2772 -48.443" transform="matrix(1,0,0,1,-112.895751953125,0)" style="fill:none;stroke:rgb(215, 240, 210);transform:matrix(1, 0, 0, 1, -112.896, 0);;animation:none"></path></g>
<g transform="matrix(0.9659258262890683,0.25881904510252074,-0.25881904510252074,0.9659258262890683,107.1130017234355,479.0959888399095)" style="transform:matrix(0.965926, 0.258819, -0.258819, 0.965926, 107.113, 479.096);;animation:none"><path stroke-width="2" stroke-opacity="0" stroke="rgb(213, 238, 207)" fill="none" d="M -252 -47.8737 C 0 -47.8737 252 47.8737 504 47.8737 C 756 47.8737 1008 -47.8737 1260 -47.8737 C 1512 -47.8737 1764 47.8737 2016 47.8737 C 2268 47.8737 2520 -47.8737 2772 -47.8737" transform="matrix(1,0,0,1,-120.95999908447266,0)" style="fill:none;stroke:rgb(213, 238, 207);transform:matrix(1, 0, 0, 1, -120.96, 0);;animation:none"></path></g>
<g transform="matrix(0.9659258262890683,0.25881904510252074,-0.25881904510252074,0.9659258262890683,107.1130017234355,-19.45402184124282)" style="transform:matrix(0.965926, 0.258819, -0.258819, 0.965926, 107.113, -19.454);;animation:none"><path stroke-width="2" stroke-opacity="0" stroke="rgb(210, 237, 204)" fill="none" d="M -252 -47.2556 C 0 -47.2556 252 47.2556 504 47.2556 C 756 47.2556 1008 -47.2556 1260 -47.2556 C 1512 -47.2556 1764 47.2556 2016 47.2556 C 2268 47.2556 2520 -47.2556 2772 -47.2556" transform="matrix(1,0,0,1,-129.0238800048828,0)" style="fill:none;stroke:rgb(210, 237, 204);transform:matrix(1, 0, 0, 1, -129.024, 0);;animation:none"></path></g>
<g transform="matrix(0.9659258262890683,0.25881904510252074,-0.25881904510252074,0.9659258262890683,107.1130017234355,475.3859668672533)" style="transform:matrix(0.965926, 0.258819, -0.258819, 0.965926, 107.113, 475.386);;animation:none"><path stroke-width="2" stroke-opacity="0" stroke="rgb(208, 236, 201)" fill="none" d="M -252 -46.5873 C 0 -46.5873 252 46.5873 504 46.5873 C 756 46.5873 1008 -46.5873 1260 -46.5873 C 1512 -46.5873 1764 46.5873 2016 46.5873 C 2268 46.5873 2520 -46.5873 2772 -46.5873" transform="matrix(1,0,0,1,-137.08775329589844,0)" style="fill:none;stroke:rgb(208, 236, 201);transform:matrix(1, 0, 0, 1, -137.088, 0);;animation:none"></path></g>
<g transform="matrix(0.9659258262890683,0.25881904510252074,-0.25881904510252074,0.9659258262890683,107.1130017234355,-15.744022756770164)" style="transform:matrix(0.965926, 0.258819, -0.258819, 0.965926, 107.113, -15.744);;animation:none"><path stroke-width="2" stroke-opacity="0" stroke="rgb(206, 236, 199)" fill="none" d="M -252 -45.8673 C 0 -45.8673 252 45.8673 504 45.8673 C 756 45.8673 1008 -45.8673 1260 -45.8673 C 1512 -45.8673 1764 45.8673 2016 45.8673 C 2268 45.8673 2520 -45.8673 2772 -45.8673" transform="matrix(1,0,0,1,-145.15200805664062,0)" style="fill:none;stroke:rgb(206, 236, 199);transform:matrix(1, 0, 0, 1, -145.152, 0);;animation:none"></path></g>
<g transform="matrix(0.9659258262890683,0.25881904510252074,-0.25881904510252074,0.9659258262890683,107.1130017234355,471.685954660222)" style="transform:matrix(0.965926, 0.258819, -0.258819, 0.965926, 107.113, 471.686);;animation:none"><path stroke-width="2" stroke-opacity="0" stroke="rgb(204, 235, 197)" fill="none" d="M -252 -45.0942 C 0 -45.0942 252 45.0942 504 45.0942 C 756 45.0942 1008 -45.0942 1260 -45.0942 C 1512 -45.0942 1764 45.0942 2016 45.0942 C 2268 45.0942 2520 -45.0942 2772 -45.0942" transform="matrix(1,0,0,1,-153.21588134765625,0)" style="fill:none;stroke:rgb(204, 235, 197);transform:matrix(1, 0, 0, 1, -153.216, 0);;animation:none"></path></g>
<g transform="matrix(0.9659258262890683,0.25881904510252074,-0.25881904510252074,0.9659258262890683,107.1130017234355,-12.034023672297508)" style="transform:matrix(0.965926, 0.258819, -0.258819, 0.965926, 107.113, -12.034);;animation:none"><path stroke-width="2" stroke-opacity="0" stroke="rgb(203, 234, 196)" fill="none" d="M -252 -44.2667 C 0 -44.2667 252 44.2667 504 44.2667 C 756 44.2667 1008 -44.2667 1260 -44.2667 C 1512 -44.2667 1764 44.2667 2016 44.2667 C 2268 44.2667 2520 -44.2667 2772 -44.2667" transform="matrix(1,0,0,1,-161.2797393798828,0)" style="fill:none;stroke:rgb(203, 234, 196);transform:matrix(1, 0, 0, 1, -161.28, 0);;animation:none"></path></g>
<g transform="matrix(0.9659258262890683,0.25881904510252074,-0.25881904510252074,0.9659258262890683,107.1130017234355,467.975993722722)" style="transform:matrix(0.965926, 0.258819, -0.258819, 0.965926, 107.113, 467.976);;animation:none"><path stroke-width="2" stroke-opacity="0" stroke="rgb(201, 234, 195)" fill="none" d="M -252 -43.3832 C 0 -43.3832 252 43.3832 504 43.3832 C 756 43.3832 1008 -43.3832 1260 -43.3832 C 1512 -43.3832 1764 43.3832 2016 43.3832 C 2268 43.3832 2520 -43.3832 2772 -43.3832" transform="matrix(1,0,0,1,-169.34400939941406,0)" style="fill:none;stroke:rgb(201, 234, 195);transform:matrix(1, 0, 0, 1, -169.344, 0);;animation:none"></path></g>
<g transform="matrix(0.9659258262890683,0.25881904510252074,-0.25881904510252074,0.9659258262890683,107.1130017234355,-8.33402672405532)" style="transform:matrix(0.965926, 0.258819, -0.258819, 0.965926, 107.113, -8.334);;animation:none"><path stroke-width="2" stroke-opacity="0" stroke="rgb(201, 234, 194)" fill="none" d="M -252 -42.4425 C 0 -42.4425 252 42.4425 504 42.4425 C 756 42.4425 1008 -42.4425 1260 -42.4425 C 1512 -42.4425 1764 42.4425 2016 42.4425 C 2268 42.4425 2520 -42.4425 2772 -42.4425" transform="matrix(1,0,0,1,-177.40786743164062,0)" style="fill:none;stroke:rgb(201, 234, 194);transform:matrix(1, 0, 0, 1, -177.408, 0);;animation:none"></path></g>
<g transform="matrix(0.9659258262890683,0.25881904510252074,-0.25881904510252074,0.9659258262890683,107.1130017234355,464.2659717500658)" style="transform:matrix(0.965926, 0.258819, -0.258819, 0.965926, 107.113, 464.266);;animation:none"><path stroke-width="2" stroke-opacity="0" stroke="rgb(200, 233, 193)" fill="none" d="M -252 -41.4432 C 0 -41.4432 252 41.4432 504 41.4432 C 756 41.4432 1008 -41.4432 1260 -41.4432 C 1512 -41.4432 1764 41.4432 2016 41.4432 C 2268 41.4432 2520 -41.4432 2772 -41.4432" transform="matrix(1,0,0,1,-185.4717559814453,0)" style="fill:none;stroke:rgb(200, 233, 193);transform:matrix(1, 0, 0, 1, -185.472, 0);;animation:none"></path></g>
<g transform="matrix(0.9659258262890683,0.25881904510252074,-0.25881904510252074,0.9659258262890683,107.1130017234355,-4.624020010188133)" style="transform:matrix(0.965926, 0.258819, -0.258819, 0.965926, 107.113, -4.62404);;animation:none"><path stroke-width="2" stroke-opacity="0" stroke="rgb(199, 233, 192)" fill="none" d="M -252 -40.3839 C 0 -40.3839 252 40.3839 504 40.3839 C 756 40.3839 1008 -40.3839 1260 -40.3839 C 1512 -40.3839 1764 40.3839 2016 40.3839 C 2268 40.3839 2520 -40.3839 2772 -40.3839" transform="matrix(1,0,0,1,-193.5360107421875,0)" style="fill:none;stroke:rgb(199, 233, 192);transform:matrix(1, 0, 0, 1, -193.536, 0);;animation:none"></path></g>
<g transform="matrix(0.9659258262890683,0.25881904510252074,-0.25881904510252074,0.9659258262890683,107.1130017234355,460.5659595430345)" style="transform:matrix(0.965926, 0.258819, -0.258819, 0.965926, 107.113, 460.566);;animation:none"><path stroke-width="2" stroke-opacity="0" stroke="rgb(199, 233, 192)" fill="none" d="M -252 -39.2636 C 0 -39.2636 252 39.2636 504 39.2636 C 756 39.2636 1008 -39.2636 1260 -39.2636 C 1512 -39.2636 1764 39.2636 2016 39.2636 C 2268 39.2636 2520 -39.2636 2772 -39.2636" transform="matrix(1,0,0,1,-201.59986877441406,0)" style="fill:none;stroke:rgb(199, 233, 192);transform:matrix(1, 0, 0, 1, -201.6, 0);;animation:none"></path></g>
<g transform="matrix(0.9659258262890683,0.25881904510252074,-0.25881904510252074,0.9659258262890683,107.1130017234355,-0.9140209257154766)" style="transform:matrix(0.965926, 0.258819, -0.258819, 0.965926, 107.113, -0.914033);;animation:none"><path stroke-width="2" stroke-opacity="0" stroke="rgb(199, 233, 192)" fill="none" d="M -252 -38.0811 C 0 -38.0811 252 38.0811 504 38.0811 C 756 38.0811 1008 -38.0811 1260 -38.0811 C 1512 -38.0811 1764 38.0811 2016 38.0811 C 2268 38.0811 2520 -38.0811 2772 -38.0811" transform="matrix(1,0,0,1,-209.6637420654297,0)" style="fill:none;stroke:rgb(199, 233, 192);transform:matrix(1, 0, 0, 1, -209.664, 0);;animation:none"></path></g>
<g transform="matrix(0.9659258262890683,0.25881904510252074,-0.25881904510252074,0.9659258262890683,107.1130017234355,456.8559986055345)" style="transform:matrix(0.965926, 0.258819, -0.258819, 0.965926, 107.113, 456.856);;animation:none"><path stroke-width="2" stroke-opacity="0" stroke="rgb(199, 233, 192)" fill="none" d="M -252 -36.8353 C 0 -36.8353 252 36.8353 504 36.8353 C 756 36.8353 1008 -36.8353 1260 -36.8353 C 1512 -36.8353 1764 36.8353 2016 36.8353 C 2268 36.8353 2520 -36.8353 2772 -36.8353" transform="matrix(1,0,0,1,-217.72799682617188,0)" style="fill:none;stroke:rgb(199, 233, 192);transform:matrix(1, 0, 0, 1, -217.728, 0);;animation:none"></path></g>
<g transform="matrix(0.9659258262890683,0.25881904510252074,-0.25881904510252074,0.9659258262890683,107.1130017234355,2.785976022526711)" style="transform:matrix(0.965926, 0.258819, -0.258819, 0.965926, 107.113, 2.78597);;animation:none"><path stroke-width="2" stroke-opacity="0" stroke="rgb(199, 233, 192)" fill="none" d="M -252 -35.5255 C 0 -35.5255 252 35.5255 504 35.5255 C 756 35.5255 1008 -35.5255 1260 -35.5255 C 1512 -35.5255 1764 35.5255 2016 35.5255 C 2268 35.5255 2520 -35.5255 2772 -35.5255" transform="matrix(1,0,0,1,-225.79188537597656,0)" style="fill:none;stroke:rgb(199, 233, 192);transform:matrix(1, 0, 0, 1, -225.792, 0);;animation:none"></path></g>
<g transform="matrix(0.9659258262890683,0.25881904510252074,-0.25881904510252074,0.9659258262890683,107.1130017234355,453.1459766328783)" style="transform:matrix(0.965926, 0.258819, -0.258819, 0.965926, 107.113, 453.146);;animation:none"><path stroke-width="2" stroke-opacity="0" stroke="rgb(198, 233, 191)" fill="none" d="M -252 -34.151 C 0 -34.151 252 34.151 504 34.151 C 756 34.151 1008 -34.151 1260 -34.151 C 1512 -34.151 1764 34.151 2016 34.151 C 2268 34.151 2520 -34.151 2772 -34.151" transform="matrix(1,0,0,1,-233.85574340820312,0)" style="fill:none;stroke:rgb(198, 233, 191);transform:matrix(1, 0, 0, 1, -233.856, 0);;animation:none"></path></g>
<g transform="matrix(0.9659258262890683,0.25881904510252074,-0.25881904510252074,0.9659258262890683,107.1130017234355,6.495975106999367)" style="transform:matrix(0.965926, 0.258819, -0.258819, 0.965926, 107.113, 6.49598);;animation:none"><path stroke-width="2" stroke-opacity="0" stroke="rgb(198, 233, 191)" fill="none" d="M -252 -32.7113 C 0 -32.7113 252 32.7113 504 32.7113 C 756 32.7113 1008 -32.7113 1260 -32.7113 C 1512 -32.7113 1764 32.7113 2016 32.7113 C 2268 32.7113 2520 -32.7113 2772 -32.7113" transform="matrix(1,0,0,1,-241.9199981689453,0)" style="fill:none;stroke:rgb(198, 233, 191);transform:matrix(1, 0, 0, 1, -241.92, 0);;animation:none"></path></g>
<g transform="matrix(0.9659258262890683,0.25881904510252074,-0.25881904510252074,0.9659258262890683,107.1130017234355,449.445964425847)" style="transform:matrix(0.965926, 0.258819, -0.258819, 0.965926, 107.113, 449.446);;animation:none"><path stroke-width="2" stroke-opacity="0" stroke="rgb(197, 232, 190)" fill="none" d="M -252 -31.2064 C 0 -31.2064 252 31.2064 504 31.2064 C 756 31.2064 1008 -31.2064 1260 -31.2064 C 1512 -31.2064 1764 31.2064 2016 31.2064 C 2268 31.2064 2520 -31.2064 2772 -31.2064" transform="matrix(1,0,0,1,-249.98388671875,0)" style="fill:none;stroke:rgb(197, 232, 190);transform:matrix(1, 0, 0, 1, -249.984, 0);;animation:none"></path></g>
<g transform="matrix(0.9659258262890683,0.25881904510252074,-0.25881904510252074,0.9659258262890683,107.1130017234355,10.205974191472023)" style="transform:matrix(0.965926, 0.258819, -0.258819, 0.965926, 107.113, 10.206);;animation:none"><path stroke-width="2" stroke-opacity="0" stroke="rgb(196, 232, 189)" fill="none" d="M -252 -29.6363 C 0 -29.6363 252 29.6363 504 29.6363 C 756 29.6363 1008 -29.6363 1260 -29.6363 C 1512 -29.6363 1764 29.6363 2016 29.6363 C 2268 29.6363 2520 -29.6363 2772 -29.6363" transform="matrix(1,0,0,1,-258.0477600097656,0)" style="fill:none;stroke:rgb(196, 232, 189);transform:matrix(1, 0, 0, 1, -258.048, 0);;animation:none"></path></g>
<g transform="matrix(0.9659258262890683,0.25881904510252074,-0.25881904510252074,0.9659258262890683,107.1130017234355,445.736003488347)" style="transform:matrix(0.965926, 0.258819, -0.258819, 0.965926, 107.113, 445.736);;animation:none"><path stroke-width="2" stroke-opacity="0" stroke="rgb(195, 231, 188)" fill="none" d="M -252 -28.0015 C 0 -28.0015 252 28.0015 504 28.0015 C 756 28.0015 1008 -28.0015 1260 -28.0015 C 1512 -28.0015 1764 28.0015 2016 28.0015 C 2268 28.0015 2520 -28.0015 2772 -28.0015" transform="matrix(1,0,0,1,-266.11199951171875,0)" style="fill:none;stroke:rgb(195, 231, 188);transform:matrix(1, 0, 0, 1, -266.112, 0);;animation:none"></path></g>
<g transform="matrix(0.9659258262890683,0.25881904510252074,-0.25881904510252074,0.9659258262890683,107.1130017234355,13.905971139714211)" style="transform:matrix(0.965926, 0.258819, -0.258819, 0.965926, 107.113, 13.906);;animation:none"><path stroke-width="2" stroke-opacity="0" stroke="rgb(194, 231, 187)" fill="none" d="M -252 -26.3029 C 0 -26.3029 252 26.3029 504 26.3029 C 756 26.3029 1008 -26.3029 1260 -26.3029 C 1512 -26.3029 1764 26.3029 2016 26.3029 C 2268 26.3029 2520 -26.3029 2772 -26.3029" transform="matrix(1,0,0,1,-274.1758728027344,0)" style="fill:none;stroke:rgb(194, 231, 187);transform:matrix(1, 0, 0, 1, -274.176, 0);;animation:none"></path></g>
<g transform="matrix(0.9659258262890683,0.25881904510252074,-0.25881904510252074,0.9659258262890683,107.1130017234355,442.0259815156908)" style="transform:matrix(0.965926, 0.258819, -0.258819, 0.965926, 107.113, 442.026);;animation:none"><path stroke-width="2" stroke-opacity="0" stroke="rgb(192, 230, 186)" fill="none" d="M -252 -24.5417 C 0 -24.5417 252 24.5417 504 24.5417 C 756 24.5417 1008 -24.5417 1260 -24.5417 C 1512 -24.5417 1764 24.5417 2016 24.5417 C 2268 24.5417 2520 -24.5417 2772 -24.5417" transform="matrix(1,0,0,1,-282.23974609375,0)" style="fill:none;stroke:rgb(192, 230, 186);transform:matrix(1, 0, 0, 1, -282.24, 0);;animation:none"></path></g>
<g transform="matrix(0.9659258262890683,0.25881904510252074,-0.25881904510252074,0.9659258262890683,107.1130017234355,17.6159778535814)" style="transform:matrix(0.965926, 0.258819, -0.258819, 0.965926, 107.113, 17.616);;animation:none"><path stroke-width="2" stroke-opacity="0" stroke="rgb(191, 229, 184)" fill="none" d="M -252 -22.7197 C 0 -22.7197 252 22.7197 504 22.7197 C 756 22.7197 1008 -22.7197 1260 -22.7197 C 1512 -22.7197 1764 22.7197 2016 22.7197 C 2268 22.7197 2520 -22.7197 2772 -22.7197" transform="matrix(1,0,0,1,-290.30401611328125,0)" style="fill:none;stroke:rgb(191, 229, 184);transform:matrix(1, 0, 0, 1, -290.304, 0);;animation:none"></path></g>
<g transform="matrix(0.9659258262890683,0.25881904510252074,-0.25881904510252074,0.9659258262890683,107.1130017234355,438.3259693086595)" style="transform:matrix(0.965926, 0.258819, -0.258819, 0.965926, 107.113, 438.326);;animation:none"><path stroke-width="2" stroke-opacity="0" stroke="rgb(188, 229, 182)" fill="none" d="M -252 -20.8393 C 0 -20.8393 252 20.8393 504 20.8393 C 756 20.8393 1008 -20.8393 1260 -20.8393 C 1512 -20.8393 1764 20.8393 2016 20.8393 C 2268 20.8393 2520 -20.8393 2772 -20.8393" transform="matrix(1,0,0,1,-298.36785888671875,0)" style="fill:none;stroke:rgb(188, 229, 182);transform:matrix(1, 0, 0, 1, -298.368, 0);;animation:none"></path></g>
<g transform="matrix(0.9659258262890683,0.25881904510252074,-0.25881904510252074,0.9659258262890683,107.1130017234355,21.325969308659523)" style="transform:matrix(0.965926, 0.258819, -0.258819, 0.965926, 107.113, 21.326);;animation:none"><path stroke-width="2" stroke-opacity="0" stroke="rgb(186, 228, 179)" fill="none" d="M -252 -18.9033 C 0 -18.9033 252 18.9033 504 18.9033 C 756 18.9033 1008 -18.9033 1260 -18.9033 C 1512 -18.9033 1764 18.9033 2016 18.9033 C 2268 18.9033 2520 -18.9033 2772 -18.9033" transform="matrix(1,0,0,1,-306.4317626953125,0)" style="fill:none;stroke:rgb(186, 228, 179);transform:matrix(1, 0, 0, 1, -306.432, 0);;animation:none"></path></g>
<g transform="matrix(0.9659258262890683,0.25881904510252074,-0.25881904510252074,0.9659258262890683,107.1130017234355,434.6159473360033)" style="transform:matrix(0.965926, 0.258819, -0.258819, 0.965926, 107.113, 434.616);;animation:none"><path stroke-width="2" stroke-opacity="0" stroke="rgb(184, 226, 177)" fill="none" d="M -252 -16.9151 C 0 -16.9151 252 16.9151 504 16.9151 C 756 16.9151 1008 -16.9151 1260 -16.9151 C 1512 -16.9151 1764 16.9151 2016 16.9151 C 2268 16.9151 2520 -16.9151 2772 -16.9151" transform="matrix(1,0,0,1,-314.4960021972656,0)" style="fill:none;stroke:rgb(184, 226, 177);transform:matrix(1, 0, 0, 1, -314.496, 0);;animation:none"></path></g>
<g transform="matrix(0.9659258262890683,0.25881904510252074,-0.25881904510252074,0.9659258262890683,107.1130017234355,25.025981515690773)" style="transform:matrix(0.965926, 0.258819, -0.258819, 0.965926, 107.113, 25.026);;animation:none"><path stroke-width="2" stroke-opacity="0" stroke="rgb(181, 225, 174)" fill="none" d="M -252 -14.8786 C 0 -14.8786 252 14.8786 504 14.8786 C 756 14.8786 1008 -14.8786 1260 -14.8786 C 1512 -14.8786 1764 14.8786 2016 14.8786 C 2268 14.8786 2520 -14.8786 2772 -14.8786" transform="matrix(1,0,0,1,-322.55987548828125,0)" style="fill:none;stroke:rgb(181, 225, 174);transform:matrix(1, 0, 0, 1, -322.56, 0);;animation:none"></path></g>
<g transform="matrix(0.9659258262890683,0.25881904510252074,-0.25881904510252074,0.9659258262890683,107.1130017234355,430.9059863985033)" style="transform:matrix(0.965926, 0.258819, -0.258819, 0.965926, 107.113, 430.906);;animation:none"><path stroke-width="2" stroke-opacity="0" stroke="rgb(178, 224, 172)" fill="none" d="M -252 -12.7986 C 0 -12.7986 252 12.7986 504 12.7986 C 756 12.7986 1008 -12.7986 1260 -12.7986 C 1512 -12.7986 1764 12.7986 2016 12.7986 C 2268 12.7986 2520 -12.7986 2772 -12.7986" transform="matrix(1,0,0,1,-330.6237487792969,0)" style="fill:none;stroke:rgb(178, 224, 172);transform:matrix(1, 0, 0, 1, -330.624, 0);;animation:none"></path></g>
<g transform="matrix(0.9659258262890683,0.25881904510252074,-0.25881904510252074,0.9659258262890683,107.1130017234355,28.7359729707689)" style="transform:matrix(0.965926, 0.258819, -0.258819, 0.965926, 107.113, 28.736);;animation:none"><path stroke-width="2" stroke-opacity="0" stroke="rgb(176, 223, 169)" fill="none" d="M -252 -10.68 C 0 -10.68 252 10.68 504 10.68 C 756 10.68 1008 -10.68 1260 -10.68 C 1512 -10.68 1764 10.68 2016 10.68 C 2268 10.68 2520 -10.68 2772 -10.68" transform="matrix(1,0,0,1,-338.6880187988281,0)" style="fill:none;stroke:rgb(176, 223, 169);transform:matrix(1, 0, 0, 1, -338.688, 0);;animation:none"></path></g>
<g transform="matrix(0.9659258262890683,0.25881904510252074,-0.25881904510252074,0.9659258262890683,107.1130017234355,427.205974191472)" style="transform:matrix(0.965926, 0.258819, -0.258819, 0.965926, 107.113, 427.206);;animation:none"><path stroke-width="2" stroke-opacity="0" stroke="rgb(173, 222, 167)" fill="none" d="M -252 -8.52857 C 0 -8.52857 252 8.52857 504 8.52857 C 756 8.52857 1008 -8.52857 1260 -8.52857 C 1512 -8.52857 1764 8.52857 2016 8.52857 C 2268 8.52857 2520 -8.52857 2772 -8.52857" transform="matrix(1,0,0,1,-346.7518615722656,0)" style="fill:none;stroke:rgb(173, 222, 167);transform:matrix(1, 0, 0, 1, -346.752, 0);;animation:none"></path></g>
<g transform="matrix(0.9659258262890683,0.25881904510252074,-0.25881904510252074,0.9659258262890683,107.1130017234355,32.445979684636086)" style="transform:matrix(0.965926, 0.258819, -0.258819, 0.965926, 107.113, 32.446);;animation:none"><path stroke-width="2" stroke-opacity="0" stroke="rgb(171, 221, 165)" fill="none" d="M -252 -6.35049 C 0 -6.35049 252 6.35049 504 6.35049 C 756 6.35049 1008 -6.35049 1260 -6.35049 C 1512 -6.35049 1764 6.35049 2016 6.35049 C 2268 6.35049 2520 -6.35049 2772 -6.35049" transform="matrix(1,0,0,1,-354.81573486328125,0)" style="fill:none;stroke:rgb(171, 221, 165);transform:matrix(1, 0, 0, 1, -354.816, 0);;animation:none"></path></g>
<g transform="matrix(0.9659258262890683,0.25881904510252074,-0.25881904510252074,0.9659258262890683,107.1130017234355,423.4959522188158)" style="transform:matrix(0.965926, 0.258819, -0.258819, 0.965926, 107.113, 423.496);;animation:none"><path stroke-width="2" stroke-opacity="0" stroke="rgb(169, 220, 163)" fill="none" d="M -252 -4.15214 C 0 -4.15214 252 4.15214 504 4.15214 C 756 4.15214 1008 -4.15214 1260 -4.15214 C 1512 -4.15214 1764 4.15214 2016 4.15214 C 2268 4.15214 2520 -4.15214 2772 -4.15214" transform="matrix(1,0,0,1,-362.8800048828125,0)" style="fill:none;stroke:rgb(169, 220, 163);transform:matrix(1, 0, 0, 1, -362.88, 0);;animation:none"></path></g>
<g transform="matrix(0.9659258262890683,0.25881904510252074,-0.25881904510252074,0.9659258262890683,107.1130017234355,36.14597663287827)" style="transform:matrix(0.965926, 0.258819, -0.258819, 0.965926, 107.113, 36.146);;animation:none"><path stroke-width="2" stroke-opacity="0.022727272727272728" stroke="rgb(167, 220, 161)" fill="none" d="M -252 -1.94057 C 0 -1.94057 252 1.94057 504 1.94057 C 756 1.94057 1008 -1.94057 1260 -1.94057 C 1512 -1.94057 1764 1.94057 2016 1.94057 C 2268 1.94057 2520 -1.94057 2772 -1.94057" transform="matrix(1,0,0,1,-370.9438781738281,0)" style="fill:none;stroke:rgb(167, 220, 161);transform:matrix(1, 0, 0, 1, -370.944, 0);;animation:none"></path></g>
<g transform="matrix(0.9659258262890683,0.25881904510252074,-0.25881904510252074,0.9659258262890683,107.1130017234355,419.7859912813158)" style="transform:matrix(0.965926, 0.258819, -0.258819, 0.965926, 107.113, 419.786);;animation:none"><path stroke-width="2" stroke-opacity="0.045454545454545456" stroke="rgb(165, 219, 159)" fill="none" d="M -252 0.277264 C 0 0.277264 252 -0.277264 504 -0.277264 C 756 -0.277264 1008 0.277264 1260 0.277264 C 1512 0.277264 1764 -0.277264 2016 -0.277264 C 2268 -0.277264 2520 0.277264 2772 0.277264" transform="matrix(1,0,0,1,-379.00775146484375,0)" style="fill:none;stroke:rgb(165, 219, 159);transform:matrix(1, 0, 0, 1, -379.008, 0);;animation:none"></path></g>
<g transform="matrix(0.9659258262890683,0.25881904510252074,-0.25881904510252074,0.9659258262890683,107.1130017234355,39.85598334674546)" style="transform:matrix(0.965926, 0.258819, -0.258819, 0.965926, 107.113, 39.856);;animation:none"><path stroke-width="2" stroke-opacity="0.06818181818181818" stroke="rgb(164, 218, 158)" fill="none" d="M -252 2.4943 C 0 2.4943 252 -2.4943 504 -2.4943 C 756 -2.4943 1008 2.4943 1260 2.4943 C 1512 2.4943 1764 -2.4943 2016 -2.4943 C 2268 -2.4943 2520 2.4943 2772 2.4943" transform="matrix(1,0,0,1,-387.072021484375,0)" style="fill:none;stroke:rgb(164, 218, 158);transform:matrix(1, 0, 0, 1, -387.072, 0);;animation:none"></path></g>
<g transform="matrix(0.9659258262890683,0.25881904510252074,-0.25881904510252074,0.9659258262890683,107.1130017234355,416.0859790742845)" style="transform:matrix(0.965926, 0.258819, -0.258819, 0.965926, 107.113, 416.086);;animation:none"><path stroke-width="2" stroke-opacity="0.09090909090909091" stroke="rgb(163, 218, 157)" fill="none" d="M -252 4.7032 C 0 4.7032 252 -4.7032 504 -4.7032 C 756 -4.7032 1008 4.7032 1260 4.7032 C 1512 4.7032 1764 -4.7032 2016 -4.7032 C 2268 -4.7032 2520 4.7032 2772 4.7032" transform="matrix(1,0,0,1,-395.1358947753906,0)" style="fill:none;stroke:rgb(163, 218, 157);transform:matrix(1, 0, 0, 1, -395.136, 0);;animation:none"></path></g>
<g transform="matrix(0.9659258262890683,0.25881904510252074,-0.25881904510252074,0.9659258262890683,107.1130017234355,43.565974801823586)" style="transform:matrix(0.965926, 0.258819, -0.258819, 0.965926, 107.113, 43.566);;animation:none"><path stroke-width="2" stroke-opacity="0.11363636363636363" stroke="rgb(162, 218, 156)" fill="none" d="M -252 6.89704 C 0 6.89704 252 -6.89704 504 -6.89704 C 756 -6.89704 1008 6.89704 1260 6.89704 C 1512 6.89704 1764 -6.89704 2016 -6.89704 C 2268 -6.89704 2520 6.89704 2772 6.89704" transform="matrix(1,0,0,1,-403.1997375488281,0)" style="fill:none;stroke:rgb(162, 218, 156);transform:matrix(1, 0, 0, 1, -403.2, 0);;animation:none"></path></g>
<g transform="matrix(0.9659258262890683,0.25881904510252074,-0.25881904510252074,0.9659258262890683,107.1130017234355,412.3759571016283)" style="transform:matrix(0.965926, 0.258819, -0.258819, 0.965926, 107.113, 412.376);;animation:none"><path stroke-width="2" stroke-opacity="0.13636363636363635" stroke="rgb(162, 217, 156)" fill="none" d="M -252 9.06915 C 0 9.06915 252 -9.06915 504 -9.06915 C 756 -9.06915 1008 9.06915 1260 9.06915 C 1512 9.06915 1764 -9.06915 2016 -9.06915 C 2268 -9.06915 2520 9.06915 2772 9.06915" transform="matrix(1,0,0,1,-411.2640075683594,0)" style="fill:none;stroke:rgb(162, 217, 156);transform:matrix(1, 0, 0, 1, -411.264, 0);;animation:none"></path></g>
<g transform="matrix(0.9659258262890683,0.25881904510252074,-0.25881904510252074,0.9659258262890683,107.1130017234355,47.26597175006577)" style="transform:matrix(0.965926, 0.258819, -0.258819, 0.965926, 107.113, 47.266);;animation:none"><path stroke-width="2" stroke-opacity="0.1590909090909091" stroke="rgb(161, 217, 155)" fill="none" d="M -252 11.2129 C 0 11.2129 252 -11.2129 504 -11.2129 C 756 -11.2129 1008 11.2129 1260 11.2129 C 1512 11.2129 1764 -11.2129 2016 -11.2129 C 2268 -11.2129 2520 11.2129 2772 11.2129" transform="matrix(1,0,0,1,-419.327880859375,0)" style="fill:none;stroke:rgb(161, 217, 155);transform:matrix(1, 0, 0, 1, -419.328, 0);;animation:none"></path></g>
<g transform="matrix(0.9659258262890683,0.25881904510252074,-0.25881904510252074,0.9659258262890683,107.1130017234355,408.6659961641283)" style="transform:matrix(0.965926, 0.258819, -0.258819, 0.965926, 107.113, 408.666);;animation:none"><path stroke-width="2" stroke-opacity="0.18181818181818182" stroke="rgb(161, 217, 155)" fill="none" d="M -252 13.3223 C 0 13.3223 252 -13.3223 504 -13.3223 C 756 -13.3223 1008 13.3223 1260 13.3223 C 1512 13.3223 1764 -13.3223 2016 -13.3223 C 2268 -13.3223 2520 13.3223 2772 13.3223" transform="matrix(1,0,0,1,-427.3917541503906,0)" style="fill:none;stroke:rgb(161, 217, 155);transform:matrix(1, 0, 0, 1, -427.392, 0);;animation:none"></path></g>
<g transform="matrix(0.9659258262890683,0.25881904510252074,-0.25881904510252074,0.9659258262890683,107.1130017234355,50.97597846393296)" style="transform:matrix(0.965926, 0.258819, -0.258819, 0.965926, 107.113, 50.976);;animation:none"><path stroke-width="2" stroke-opacity="0.20454545454545456" stroke="rgb(161, 217, 155)" fill="none" d="M -252 15.392 C 0 15.392 252 -15.392 504 -15.392 C 756 -15.392 1008 15.392 1260 15.392 C 1512 15.392 1764 -15.392 2016 -15.392 C 2268 -15.392 2520 15.392 2772 15.392" transform="matrix(1,0,0,1,-435.45599365234375,0)" style="fill:none;stroke:rgb(161, 217, 155);transform:matrix(1, 0, 0, 1, -435.456, 0);;animation:none"></path></g>
<g transform="matrix(0.9659258262890683,0.25881904510252074,-0.25881904510252074,0.9659258262890683,107.1130017234355,404.965983957097)" style="transform:matrix(0.965926, 0.258819, -0.258819, 0.965926, 107.113, 404.966);;animation:none"><path stroke-width="2" stroke-opacity="0.22727272727272727" stroke="rgb(161, 217, 155)" fill="none" d="M -252 17.4168 C 0 17.4168 252 -17.4168 504 -17.4168 C 756 -17.4168 1008 17.4168 1260 17.4168 C 1512 17.4168 1764 -17.4168 2016 -17.4168 C 2268 -17.4168 2520 17.4168 2772 17.4168" transform="matrix(1,0,0,1,-443.5198974609375,0)" style="fill:none;stroke:rgb(161, 217, 155);transform:matrix(1, 0, 0, 1, -443.52, 0);;animation:none"></path></g>
<g transform="matrix(0.9659258262890683,0.25881904510252074,-0.25881904510252074,0.9659258262890683,107.1130017234355,54.685969919011086)" style="transform:matrix(0.965926, 0.258819, -0.258819, 0.965926, 107.113, 54.686);;animation:none"><path stroke-width="2" stroke-opacity="0.25" stroke="rgb(161, 217, 155)" fill="none" d="M -252 19.3923 C 0 19.3923 252 -19.3923 504 -19.3923 C 756 -19.3923 1008 19.3923 1260 19.3923 C 1512 19.3923 1764 -19.3923 2016 -19.3923 C 2268 -19.3923 2520 19.3923 2772 19.3923" transform="matrix(1,0,0,1,-451.5837707519531,0)" style="fill:none;stroke:rgb(161, 217, 155);transform:matrix(1, 0, 0, 1, -451.584, 0);;animation:none"></path></g>
<g transform="matrix(0.9659258262890683,0.25881904510252074,-0.25881904510252074,0.9659258262890683,107.1130017234355,401.2559619844408)" style="transform:matrix(0.965926, 0.258819, -0.258819, 0.965926, 107.113, 401.256);;animation:none"><path stroke-width="2" stroke-opacity="0.2727272727272727" stroke="rgb(160, 217, 154)" fill="none" d="M -252 21.3147 C 0 21.3147 252 -21.3147 504 -21.3147 C 756 -21.3147 1008 21.3147 1260 21.3147 C 1512 21.3147 1764 -21.3147 2016 -21.3147 C 2268 -21.3147 2520 21.3147 2772 21.3147" transform="matrix(1,0,0,1,-459.6479797363281,0)" style="fill:none;stroke:rgb(160, 217, 154);transform:matrix(1, 0, 0, 1, -459.648, 0);;animation:none"></path></g>
<g transform="matrix(0.9659258262890683,0.25881904510252074,-0.25881904510252074,0.9659258262890683,107.1130017234355,58.385982126042336)" style="transform:matrix(0.965926, 0.258819, -0.258819, 0.965926, 107.113, 58.386);;animation:none"><path stroke-width="2" stroke-opacity="0.29545454545454547" stroke="rgb(160, 216, 154)" fill="none" d="M -252 23.1807 C 0 23.1807 252 -23.1807 504 -23.1807 C 756 -23.1807 1008 23.1807 1260 23.1807 C 1512 23.1807 1764 -23.1807 2016 -23.1807 C 2268 -23.1807 2520 23.1807 2772 23.1807" transform="matrix(1,0,0,1,-467.7118835449219,0)" style="fill:none;stroke:rgb(160, 216, 154);transform:matrix(1, 0, 0, 1, -467.712, 0);;animation:none"></path></g>
<g transform="matrix(0.9659258262890683,0.25881904510252074,-0.25881904510252074,0.9659258262890683,107.1130017234355,397.5460010469408)" style="transform:matrix(0.965926, 0.258819, -0.258819, 0.965926, 107.113, 397.546);;animation:none"><path stroke-width="2" stroke-opacity="0.3181818181818182" stroke="rgb(159, 216, 153)" fill="none" d="M -252 24.9877 C 0 24.9877 252 -24.9877 504 -24.9877 C 756 -24.9877 1008 24.9877 1260 24.9877 C 1512 24.9877 1764 -24.9877 2016 -24.9877 C 2268 -24.9877 2520 24.9877 2772 24.9877" transform="matrix(1,0,0,1,-475.7757568359375,0)" style="fill:none;stroke:rgb(159, 216, 153);transform:matrix(1, 0, 0, 1, -475.776, 0);;animation:none"></path></g>
<g transform="matrix(0.9659258262890683,0.25881904510252074,-0.25881904510252074,0.9659258262890683,107.1130017234355,62.09597358112046)" style="transform:matrix(0.965926, 0.258819, -0.258819, 0.965926, 107.113, 62.096);;animation:none"><path stroke-width="2" stroke-opacity="0.3409090909090909" stroke="rgb(158, 215, 152)" fill="none" d="M -252 26.7334 C 0 26.7334 252 -26.7334 504 -26.7334 C 756 -26.7334 1008 26.7334 1260 26.7334 C 1512 26.7334 1764 -26.7334 2016 -26.7334 C 2268 -26.7334 2520 26.7334 2772 26.7334" transform="matrix(1,0,0,1,-483.8399963378906,0)" style="fill:none;stroke:rgb(158, 215, 152);transform:matrix(1, 0, 0, 1, -483.84, 0);;animation:none"></path></g>
<g transform="matrix(0.9659258262890683,0.25881904510252074,-0.25881904510252074,0.9659258262890683,107.1130017234355,393.8459888399095)" style="transform:matrix(0.965926, 0.258819, -0.258819, 0.965926, 107.113, 393.846);;animation:none"><path stroke-width="2" stroke-opacity="0.36363636363636365" stroke="rgb(156, 215, 151)" fill="none" d="M -252 28.4162 C 0 28.4162 252 -28.4162 504 -28.4162 C 756 -28.4162 1008 28.4162 1260 28.4162 C 1512 28.4162 1764 -28.4162 2016 -28.4162 C 2268 -28.4162 2520 28.4162 2772 28.4162" transform="matrix(1,0,0,1,-491.90386962890625,0)" style="fill:none;stroke:rgb(156, 215, 151);transform:matrix(1, 0, 0, 1, -491.904, 0);;animation:none"></path></g>
<g transform="matrix(0.9659258262890683,0.25881904510252074,-0.25881904510252074,0.9659258262890683,107.1130017234355,65.80598029498765)" style="transform:matrix(0.965926, 0.258819, -0.258819, 0.965926, 107.113, 65.806);;animation:none"><path stroke-width="2" stroke-opacity="0.38636363636363635" stroke="rgb(154, 214, 149)" fill="none" d="M -252 30.0349 C 0 30.0349 252 -30.0349 504 -30.0349 C 756 -30.0349 1008 30.0349 1260 30.0349 C 1512 30.0349 1764 -30.0349 2016 -30.0349 C 2268 -30.0349 2520 30.0349 2772 30.0349" transform="matrix(1,0,0,1,-499.9677734375,0)" style="fill:none;stroke:rgb(154, 214, 149);transform:matrix(1, 0, 0, 1, -499.968, 0);;animation:none"></path></g>
<g transform="matrix(0.9659258262890683,0.25881904510252074,-0.25881904510252074,0.9659258262890683,107.1130017234355,390.1359668672533)" style="transform:matrix(0.965926, 0.258819, -0.258819, 0.965926, 107.113, 390.136);;animation:none"><path stroke-width="2" stroke-opacity="0.4090909090909091" stroke="rgb(152, 213, 148)" fill="none" d="M -252 31.5888 C 0 31.5888 252 -31.5888 504 -31.5888 C 756 -31.5888 1008 31.5888 1260 31.5888 C 1512 31.5888 1764 -31.5888 2016 -31.5888 C 2268 -31.5888 2520 31.5888 2772 31.5888" transform="matrix(1,0,0,1,-508.031982421875,0)" style="fill:none;stroke:rgb(152, 213, 148);transform:matrix(1, 0, 0, 1, -508.032, 0);;animation:none"></path></g>
<g transform="matrix(0.9659258262890683,0.25881904510252074,-0.25881904510252074,0.9659258262890683,107.1130017234355,69.50597724322984)" style="transform:matrix(0.965926, 0.258819, -0.258819, 0.965926, 107.113, 69.506);;animation:none"><path stroke-width="2" stroke-opacity="0.4318181818181818" stroke="rgb(150, 212, 146)" fill="none" d="M -252 33.0774 C 0 33.0774 252 -33.0774 504 -33.0774 C 756 -33.0774 1008 33.0774 1260 33.0774 C 1512 33.0774 1764 -33.0774 2016 -33.0774 C 2268 -33.0774 2520 33.0774 2772 33.0774" transform="matrix(1,0,0,1,-516.0958862304688,0)" style="fill:none;stroke:rgb(150, 212, 146);transform:matrix(1, 0, 0, 1, -516.096, 0);;animation:none"></path></g>
<g transform="matrix(0.9659258262890683,0.25881904510252074,-0.25881904510252074,0.9659258262890683,107.1130017234355,386.42597541217515)" style="transform:matrix(0.965926, 0.258819, -0.258819, 0.965926, 107.113, 386.426);;animation:none"><path stroke-width="2" stroke-opacity="0.45454545454545453" stroke="rgb(147, 210, 143)" fill="none" d="M -252 34.5007 C 0 34.5007 252 -34.5007 504 -34.5007 C 756 -34.5007 1008 34.5007 1260 34.5007 C 1512 34.5007 1764 -34.5007 2016 -34.5007 C 2268 -34.5007 2520 34.5007 2772 34.5007" transform="matrix(1,0,0,1,-524.1597900390625,0)" style="fill:none;stroke:rgb(147, 210, 143);transform:matrix(1, 0, 0, 1, -524.16, 0);;animation:none"></path></g>
<g transform="matrix(0.9659258262890683,0.25881904510252074,-0.25881904510252074,0.9659258262890683,107.1130017234355,73.21598395709702)" style="transform:matrix(0.965926, 0.258819, -0.258819, 0.965926, 107.113, 73.216);;animation:none"><path stroke-width="2" stroke-opacity="0.4772727272727273" stroke="rgb(144, 209, 141)" fill="none" d="M -252 35.859 C 0 35.859 252 -35.859 504 -35.859 C 756 -35.859 1008 35.859 1260 35.859 C 1512 35.859 1764 -35.859 2016 -35.859 C 2268 -35.859 2520 35.859 2772 35.859" transform="matrix(1,0,0,1,-532.2239990234375,0)" style="fill:none;stroke:rgb(144, 209, 141);transform:matrix(1, 0, 0, 1, -532.224, 0);;animation:none"></path></g>
<g transform="matrix(0.9659258262890683,0.25881904510252074,-0.25881904510252074,0.9659258262890683,107.1130017234355,382.7259632051439)" style="transform:matrix(0.965926, 0.258819, -0.258819, 0.965926, 107.113, 382.726);;animation:none"><path stroke-width="2" stroke-opacity="0.5" stroke="rgb(140, 207, 138)" fill="none" d="M -252 37.1527 C 0 37.1527 252 -37.1527 504 -37.1527 C 756 -37.1527 1008 37.1527 1260 37.1527 C 1512 37.1527 1764 -37.1527 2016 -37.1527 C 2268 -37.1527 2520 37.1527 2772 37.1527" transform="matrix(1,0,0,1,-540.287841796875,0)" style="fill:none;stroke:rgb(140, 207, 138);transform:matrix(1, 0, 0, 1, -540.288, 0);;animation:none"></path></g>
<g transform="matrix(0.9659258262890683,0.25881904510252074,-0.25881904510252074,0.9659258262890683,107.1130017234355,76.92597541217515)" style="transform:matrix(0.965926, 0.258819, -0.258819, 0.965926, 107.113, 76.926);;animation:none"><path stroke-width="2" stroke-opacity="0.5227272727272727" stroke="rgb(137, 206, 135)" fill="none" d="M -252 38.3825 C 0 38.3825 252 -38.3825 504 -38.3825 C 756 -38.3825 1008 38.3825 1260 38.3825 C 1512 38.3825 1764 -38.3825 2016 -38.3825 C 2268 -38.3825 2520 38.3825 2772 38.3825" transform="matrix(1,0,0,1,-548.3517456054688,0)" style="fill:none;stroke:rgb(137, 206, 135);transform:matrix(1, 0, 0, 1, -548.352, 0);;animation:none"></path></g>
<g transform="matrix(0.9659258262890683,0.25881904510252074,-0.25881904510252074,0.9659258262890683,107.1130017234355,379.0159717500658)" style="transform:matrix(0.965926, 0.258819, -0.258819, 0.965926, 107.113, 379.016);;animation:none"><path stroke-width="2" stroke-opacity="0.5454545454545454" stroke="rgb(133, 204, 132)" fill="none" d="M -252 39.5495 C 0 39.5495 252 -39.5495 504 -39.5495 C 756 -39.5495 1008 39.5495 1260 39.5495 C 1512 39.5495 1764 -39.5495 2016 -39.5495 C 2268 -39.5495 2520 39.5495 2772 39.5495" transform="matrix(1,0,0,1,-556.416015625,0)" style="fill:none;stroke:rgb(133, 204, 132);transform:matrix(1, 0, 0, 1, -556.416, 0);;animation:none"></path></g>
<g transform="matrix(0.9659258262890683,0.25881904510252074,-0.25881904510252074,0.9659258262890683,107.1130017234355,80.62597236041734)" style="transform:matrix(0.965926, 0.258819, -0.258819, 0.965926, 107.113, 80.626);;animation:none"><path stroke-width="2" stroke-opacity="0.5681818181818182" stroke="rgb(130, 203, 130)" fill="none" d="M -252 40.6544 C 0 40.6544 252 -40.6544 504 -40.6544 C 756 -40.6544 1008 40.6544 1260 40.6544 C 1512 40.6544 1764 -40.6544 2016 -40.6544 C 2268 -40.6544 2520 40.6544 2772 40.6544" transform="matrix(1,0,0,1,-564.4798583984375,0)" style="fill:none;stroke:rgb(130, 203, 130);transform:matrix(1, 0, 0, 1, -564.48, 0);;animation:none"></path></g>
<g transform="matrix(0.9659258262890683,0.25881904510252074,-0.25881904510252074,0.9659258262890683,107.1130017234355,375.30598029498765)" style="transform:matrix(0.965926, 0.258819, -0.258819, 0.965926, 107.113, 375.306);;animation:none"><path stroke-width="2" stroke-opacity="0.5909090909090909" stroke="rgb(127, 201, 127)" fill="none" d="M -252 41.6985 C 0 41.6985 252 -41.6985 504 -41.6985 C 756 -41.6985 1008 41.6985 1260 41.6985 C 1512 41.6985 1764 -41.6985 2016 -41.6985 C 2268 -41.6985 2520 41.6985 2772 41.6985" transform="matrix(1,0,0,1,-572.5437622070312,0)" style="fill:none;stroke:rgb(127, 201, 127);transform:matrix(1, 0, 0, 1, -572.544, 0);;animation:none"></path></g>
<g transform="matrix(0.9659258262890683,0.25881904510252074,-0.25881904510252074,0.9659258262890683,107.1130017234355,84.33597907428452)" style="transform:matrix(0.965926, 0.258819, -0.258819, 0.965926, 107.113, 84.336);;animation:none"><path stroke-width="2" stroke-opacity="0.6136363636363636" stroke="rgb(125, 200, 125)" fill="none" d="M -252 42.6831 C 0 42.6831 252 -42.6831 504 -42.6831 C 756 -42.6831 1008 42.6831 1260 42.6831 C 1512 42.6831 1764 -42.6831 2016 -42.6831 C 2268 -42.6831 2520 42.6831 2772 42.6831" transform="matrix(1,0,0,1,-580.6080322265625,0)" style="fill:none;stroke:rgb(125, 200, 125);transform:matrix(1, 0, 0, 1, -580.608, 0);;animation:none"></path></g>
<g transform="matrix(0.9659258262890683,0.25881904510252074,-0.25881904510252074,0.9659258262890683,107.1130017234355,371.6059680879564)" style="transform:matrix(0.965926, 0.258819, -0.258819, 0.965926, 107.113, 371.606);;animation:none"><path stroke-width="2" stroke-opacity="0.6363636363636364" stroke="rgb(123, 199, 124)" fill="none" d="M -252 43.6093 C 0 43.6093 252 -43.6093 504 -43.6093 C 756 -43.6093 1008 43.6093 1260 43.6093 C 1512 43.6093 1764 -43.6093 2016 -43.6093 C 2268 -43.6093 2520 43.6093 2772 43.6093" transform="matrix(1,0,0,1,-588.671875,0)" style="fill:none;stroke:rgb(123, 199, 124);transform:matrix(1, 0, 0, 1, -588.672, 0);;animation:none"></path></g>
<g transform="matrix(0.9659258262890683,0.25881904510252074,-0.25881904510252074,0.9659258262890683,107.1130017234355,88.04597052936265)" style="transform:matrix(0.965926, 0.258819, -0.258819, 0.965926, 107.113, 88.046);;animation:none"><path stroke-width="2" stroke-opacity="0.6590909090909091" stroke="rgb(121, 198, 122)" fill="none" d="M -252 44.4787 C 0 44.4787 252 -44.4787 504 -44.4787 C 756 -44.4787 1008 44.4787 1260 44.4787 C 1512 44.4787 1764 -44.4787 2016 -44.4787 C 2268 -44.4787 2520 44.4787 2772 44.4787" transform="matrix(1,0,0,1,-596.7357177734375,0)" style="fill:none;stroke:rgb(121, 198, 122);transform:matrix(1, 0, 0, 1, -596.736, 0);;animation:none"></path></g>
<g></g></g><!-- [ldio] generated by https://loading.io --></svg>